<svg width="48" height="48" viewBox="0 0 48 48" fill="none" xmlns="http://www.w3.org/2000/svg">
<g clip-path="url(#clip0_26_190)">
<path d="M18 37.9999C8 40.9999 8 32.9999 4 31.9999M32 43.9999V36.2599C32.075 35.3062 31.9462 34.3475 31.622 33.4475C31.2979 32.5474 30.7859 31.7267 30.12 31.0399C36.4 30.3399 43 27.9599 43 17.0399C42.9995 14.2475 41.9254 11.5623 40 9.53988C40.9117 7.09689 40.8472 4.39657 39.82 1.99988C39.82 1.99988 37.46 1.29988 32 4.95988C27.416 3.71752 22.584 3.71752 18 4.95988C12.54 1.29988 10.18 1.99988 10.18 1.99988C9.15275 4.39657 9.08829 7.09689 10 9.53988C8.06025 11.5773 6.98505 14.2868 7 17.0999C7 27.9399 13.6 30.3199 19.88 31.0999C19.222 31.7798 18.7145 32.5907 18.3906 33.4797C18.0667 34.3687 17.9336 35.316 18 36.2599V43.9999" stroke="#1E1E1E" stroke-width="4" stroke-linecap="round" stroke-linejoin="round"/>
</g>
<defs>
<clipPath id="clip0_26_190">
<rect width="48" height="48" fill="white"/>
</clipPath>
</defs>
</svg>
